<?xml version="1.0" encoding="iso-8859-1"?>
<!-- Generator: Adobe Illustrator 19.0.0, SVG Export Plug-In . SVG Version: 6.00 Build 0)  -->
<svg version="1.1" id="Capa_1" xmlns="http://www.w3.org/2000/svg" xmlns:xlink="http://www.w3.org/1999/xlink" x="0px" y="0px"
	 viewBox="0 0 480 480" style="enable-background:new 0 0 480 480;" xml:space="preserve">
<g>
	<g>
		<path d="M379.257,0h-192c-22.056,0-40,17.944-40,40v64c0,19.312,13.768,35.472,32,39.192v133.496L78.321,377.624
			c-13.432,13.424-19.616,31.912-16.984,50.72c2.632,18.808,13.664,34.888,30.264,44.112c8.88,4.936,18.952,7.544,29.128,7.544
			h101.008c16.016,0,31.08-6.24,42.4-17.568l105.56-105.552c11.328-11.328,17.56-26.392,17.56-42.408v-171.28
			c18.232-3.72,32-19.872,32-39.192V40C419.257,17.944,401.313,0,379.257,0z M371.257,248.472c-35.944,4-64,34.536-64,71.528h16
			c0-28.152,20.912-51.456,48-55.36v49.832c0,11.744-4.568,22.792-12.872,31.096L252.817,451.12
			c-8.304,8.304-19.344,12.88-31.08,12.88H120.729c-7.464,0-14.84-1.912-21.36-5.528c-12.168-6.768-20.256-18.552-22.184-32.336
			c-1.936-13.8,2.6-27.352,12.448-37.2l103.28-103.28c1.504-1.496,2.344-3.536,2.344-5.656V144h176V248.472z M403.257,104
			c0,13.232-10.768,24-24,24h-192c-13.232,0-24-10.768-24-24V40c0-13.232,10.768-24,24-24h192c13.232,0,24,10.768,24,24V104z"/>
	</g>
</g>
<g>
	<g>
		<rect x="363.257" y="96" width="16" height="16"/>
	</g>
</g>
<g>
	<g>
		<rect x="331.257" y="96" width="16" height="16"/>
	</g>
</g>
<g>
	<g>
		<rect x="299.257" y="96" width="16" height="16"/>
	</g>
</g>
<g>
</g>
<g>
</g>
<g>
</g>
<g>
</g>
<g>
</g>
<g>
</g>
<g>
</g>
<g>
</g>
<g>
</g>
<g>
</g>
<g>
</g>
<g>
</g>
<g>
</g>
<g>
</g>
<g>
</g>
</svg>
