<?xml version="1.0" encoding="iso-8859-1"?>
<!-- Generator: Adobe Illustrator 19.0.0, SVG Export Plug-In . SVG Version: 6.00 Build 0)  -->
<svg version="1.1" id="Capa_1" xmlns="http://www.w3.org/2000/svg" xmlns:xlink="http://www.w3.org/1999/xlink" x="0px" y="0px"
	 viewBox="0 0 480 480" style="enable-background:new 0 0 480 480;" xml:space="preserve">
<g>
	<g>
		<path d="M406.736,257.152c-33.2,0-60.216,27.008-60.216,60.208c0,27.448,22.328,49.776,49.768,49.776v-16
			c-18.624,0-33.768-15.152-33.768-33.776c0-24.376,19.832-44.208,44.216-44.208c31.576,0,57.264,25.688,57.264,57.264
			C464,370.992,430.992,404,390.416,404H240v-16h8c13.232,0,24-10.768,24-24v-8c30.88,0,56-25.128,56-56v-56h16v-16h-24H204.752
			c-21.8-39.576-62.808-64-108.304-64H24H0v16h16v56v96c0,13.232,10.768,24,24,24h8v8c0,13.232,10.768,24,24,24h8v16H8v16h384v-0.08
			c48.664-0.856,88-40.64,88-89.504C480,290.016,447.136,257.152,406.736,257.152z M256,364c0,4.416-3.592,8-8,8h-32
			c-4.408,0-8-3.584-8-8v-8h48V364z M32,180h64.448c36.584,0,69.872,18.096,89.704,48H32V180z M40,340c-4.408,0-8-3.584-8-8v-88h168
			h112v56c0,22.056-17.944,40-40,40h-8h-64h-80H56H40z M72,372c-4.408,0-8-3.584-8-8v-8h48v8c0,4.416-3.592,8-8,8H72z M224,404H96
			v-16h8c13.232,0,24-10.768,24-24v-8h64v8c0,13.232,10.768,24,24,24h8V404z"/>
	</g>
</g>
<g>
	<g>
		<rect x="328" y="164" width="96" height="16"/>
	</g>
</g>
<g>
	<g>
		<rect x="296" y="164" width="16" height="16"/>
	</g>
</g>
<g>
	<g>
		<rect x="264" y="164" width="16" height="16"/>
	</g>
</g>
<g>
	<g>
		<rect x="288" y="116" width="96" height="16"/>
	</g>
</g>
<g>
	<g>
		<rect x="256" y="116" width="16" height="16"/>
	</g>
</g>
<g>
	<g>
		<rect x="224" y="116" width="16" height="16"/>
	</g>
</g>
<g>
	<g>
		<rect x="192" y="116" width="16" height="16"/>
	</g>
</g>
<g>
	<g>
		<rect x="112" y="60" width="48" height="16"/>
	</g>
</g>
<g>
	<g>
		<rect x="208" y="60" width="48" height="16"/>
	</g>
</g>
<g>
	<g>
		<rect x="80" y="60" width="16" height="16"/>
	</g>
</g>
<g>
</g>
<g>
</g>
<g>
</g>
<g>
</g>
<g>
</g>
<g>
</g>
<g>
</g>
<g>
</g>
<g>
</g>
<g>
</g>
<g>
</g>
<g>
</g>
<g>
</g>
<g>
</g>
<g>
</g>
</svg>
