<?xml version="1.0" encoding="iso-8859-1"?>
<!-- Generator: Adobe Illustrator 19.0.0, SVG Export Plug-In . SVG Version: 6.00 Build 0)  -->
<svg version="1.1" id="Capa_1" xmlns="http://www.w3.org/2000/svg" xmlns:xlink="http://www.w3.org/1999/xlink" x="0px" y="0px"
	 viewBox="0 0 488 488" style="enable-background:new 0 0 488 488;" xml:space="preserve">
<g>
	<g>
		<path d="M184,188c-13.232,0-24,10.768-24,24s10.768,24,24,24s24-10.768,24-24S197.232,188,184,188z M184,220c-4.408,0-8-3.592-8-8
			s3.592-8,8-8s8,3.592,8,8S188.408,220,184,220z"/>
	</g>
</g>
<g>
	<g>
		<path d="M296,188c-13.232,0-24,10.768-24,24s10.768,24,24,24s24-10.768,24-24S309.232,188,296,188z M296,220c-4.408,0-8-3.592-8-8
			s3.592-8,8-8c4.408,0,8,3.592,8,8S300.408,220,296,220z"/>
	</g>
</g>
<g>
	<g>
		<path d="M440,292c0,13.232,10.768,24,24,24s24-10.768,24-24c0-10.256-6.496-18.968-15.576-22.392l6.12-207.96
			c0.448-15.264-5.16-29.696-15.8-40.656C452.104,10.032,437.84,4,422.568,4H104C73.12,4,48,29.12,48,60v25.472
			C38.712,88.784,32,97.584,32,108v48c0,10.416,6.712,19.216,16,22.528v5.512c0,65.448,19.784,128.272,54.528,181.384
			C44.632,373.92,0,423.784,0,484h16c0-54.896,42.784-99.88,96.744-103.632c31.744,43.24,73.92,78.992,123.8,102.848
			c1.096,0.52,2.28,0.784,3.456,0.784c1.176,0,2.36-0.264,3.456-0.784c49.88-23.856,92.056-59.616,123.8-102.848
			C421.216,384.12,464,429.104,464,484h16c0-60.216-44.632-110.08-102.528-118.584c32.048-48.984,51.192-106.264,53.976-166.224
			l20.6,72.112C444.888,275.464,440,283.136,440,292z M463.928,284.016c0.056,0,0.112,0,0.168,0.008
			c4.36,0.048,7.904,3.6,7.904,7.976c0,4.408-3.592,8-8,8c-4.408,0-8-3.592-8-8C456,287.616,459.552,284.056,463.928,284.016z
			 M416,184.04c0,119.552-68.96,230.232-176,283.064C132.96,414.272,64,303.592,64,184.04V180h24.288
			c2.76,44.264,28.232,84.432,67.096,105.856c-3.88,6.984-7.592,13.52-13.264,16.288c-2.016,0.992-4.536,1.624-7.488,1.888
			c-2.736,0.256-4.616,0.096-5.76-0.448c-0.528-0.264-0.856-0.608-0.864-0.36c0.152-4.4-3.288-8.104-7.688-8.272
			c-4.44-0.096-8.136,3.28-8.304,7.688c0,0.024,0,0.04,0,0.064c-0.352,10.008,5.624,23.888,11.624,31.552
			c10.376,13.248,27.48,20.36,48.128,20.36c4.608,0,9.4-0.352,14.328-1.08l2.48-0.352c9.248-1.336,18.816-2.704,27.976-7.024
			c9.088-4.272,17.016-11.528,23.192-18.256c6.184,6.728,14.112,13.992,23.192,18.264c7.984,3.76,16.128,4.704,24,5.624
			c2.152,0.248,4.312,0.496,6.456,0.816c27.64,4.064,49.8-2.632,62.456-18.816c5.912-7.552,11.984-21.08,11.616-31.312
			c0-0.024,0-0.04,0-0.064c-0.168-4.416-3.648-7.752-8.304-7.688c-4.328,0.168-7.72,3.736-7.696,8.04
			c-0.12,0.184-0.432,0.512-0.848,0.72c-1.248,0.6-3.184,0.792-5.768,0.552c-3.216-0.288-5.592-0.856-7.488-1.776
			c-5.648-2.76-9.352-9.16-13.192-16.024c39.128-21.368,64.768-61.696,67.528-106.24H416V184.04z M315.688,272.672
			c-0.456-0.576-0.976-1.072-1.448-1.632c-0.64-0.752-1.28-1.488-1.952-2.208c-1.096-1.168-2.24-2.264-3.424-3.328
			c-0.704-0.632-1.392-1.272-2.12-1.864c-1.32-1.064-2.704-2.024-4.112-2.96c-0.664-0.44-1.296-0.928-1.976-1.328
			c-2.12-1.264-4.304-2.408-6.576-3.352c-10.392-4.312-22.792-4.072-33.16,0.632c-9.248,4.192-15.856,9.688-21.184,18.072
			c-1.336-2.096-2.744-4.008-4.256-5.768c-4.544-5.28-9.992-9.16-16.928-12.304c-2.584-1.168-5.224-2.04-7.888-2.704
			c-0.256-0.064-0.504-0.152-0.76-0.208c-2.544-0.592-5.096-0.92-7.632-1.056c-0.36-0.016-0.72-0.048-1.072-0.056
			c-0.376-0.008-0.752-0.064-1.12-0.064c-1.592,0-3.144,0.256-4.704,0.44c-0.8,0.096-1.608,0.08-2.4,0.224
			c-2.608,0.472-5.16,1.168-7.584,2.176c-2.248,0.936-4.416,2.08-6.528,3.36c-0.592,0.36-1.152,0.8-1.728,1.184
			c-1.48,0.984-2.928,2.008-4.328,3.152c-0.672,0.552-1.312,1.16-1.968,1.76c-1.24,1.12-2.44,2.288-3.592,3.544
			c-0.64,0.696-1.264,1.416-1.88,2.152c-0.496,0.592-1.04,1.112-1.512,1.728C129.624,253.76,107.04,218.72,104.288,180H375.72
			C372.96,219.008,350.192,254.216,315.688,272.672z M330.344,316.656c3.696,1.808,7.848,2.864,13.072,3.336
			c0.816,0.072,1.6,0.12,2.376,0.144c-0.832,1.424-1.696,2.728-2.544,3.816c-12.104,15.464-34.976,14.696-47.536,12.84
			c-2.304-0.336-4.616-0.608-6.92-0.872c-6.904-0.808-13.424-1.56-19.048-4.208c-10.488-4.936-20.336-16.864-23.576-20.792
			c-1.52-1.856-3.784-2.92-6.168-2.92h-0.512c-2.384,0-4.656,1.064-6.168,2.912c-3.232,3.92-13.08,15.848-23.576,20.784
			c-7,3.296-14.992,4.448-23.448,5.664l-2.52,0.368c-10,1.456-34.68,3.096-47.536-13.32c-0.928-1.184-1.872-2.648-2.784-4.272
			c0.944-0.032,1.832-0.096,2.624-0.168c4.896-0.448,9.296-1.6,13.064-3.44c10.32-5.048,15.72-14.784,20.488-23.368
			c1.568-2.824,3.128-5.648,4.864-8.264c4.592-6.904,10.48-11.984,17.04-14.704c5.92-2.464,13.552-2.072,20.416,1.032
			c5.312,2.408,9.528,5.232,13.328,10.64c0.496,0.712,0.984,1.544,1.464,2.344c0.256,0.424,0.52,0.776,0.768,1.232
			c1.464,2.616,2.888,5.712,4.304,9.432c1.184,3.08,4.16,5.128,7.472,5.128h0.904c3.32,0,6.288-2.048,7.472-5.144
			c5.688-14.88,11.368-19.792,19.872-23.648c6.4-2.912,14.024-3.072,20.416-0.424c6.752,2.808,12.64,7.784,17.032,14.4
			c1.72,2.592,3.272,5.384,4.824,8.168C314.584,301.904,319.992,311.6,330.344,316.656z M432,156c0,4.408-3.592,8-8,8h-40H96H56
			c-4.408,0-8-3.592-8-8v-48c0-4.408,3.592-8,8-8h368c4.408,0,8,3.592,8,8V156z M440.664,173.208
			C445.176,168.84,448,162.752,448,156v-48c0-10.416-6.712-19.216-16-22.528V44h-16v40H64V60c0-22.056,17.944-40,40-40h318.568
			c10.912,0,21.104,4.312,28.696,12.136c7.6,7.824,11.608,18.136,11.288,29.04L457.52,232.2L440.664,173.208z"/>
	</g>
</g>
<g>
	<g>
		<rect x="64" y="116" width="16" height="16"/>
	</g>
</g>
<g>
	<g>
		<rect x="96" y="116" width="16" height="16"/>
	</g>
</g>
<g>
	<g>
		<rect x="128" y="116" width="16" height="16"/>
	</g>
</g>
<g>
</g>
<g>
</g>
<g>
</g>
<g>
</g>
<g>
</g>
<g>
</g>
<g>
</g>
<g>
</g>
<g>
</g>
<g>
</g>
<g>
</g>
<g>
</g>
<g>
</g>
<g>
</g>
<g>
</g>
</svg>
